<?xml version="1.0" encoding="iso-8859-1"?>
<!-- Generator: Adobe Illustrator 19.0.0, SVG Export Plug-In . SVG Version: 6.00 Build 0)  -->
<svg version="1.1" id="Layer_1" xmlns="http://www.w3.org/2000/svg" xmlns:xlink="http://www.w3.org/1999/xlink" x="0px" y="0px"
	 viewBox="0 0 511.999 511.999" style="enable-background:new 0 0 511.999 511.999;" xml:space="preserve">
<g>
	<g>
		<path d="M449.135,416.011l-12.667-29.315c1.448-8.388,6.154-36.458,9.688-67.104c3.267-28.323-5.578-46.798-11.396-55.552
			c7.369-10.977,20.22-36.046,2.943-58.459c-16.422-21.302-37.447-17.674-49.259-11.36c-11.925-4.275-21.668-3.576-29.01,2.097
			c-9.413,7.274-11.336,20.635-11.371,30.151c-35.516-2.304-115.894-0.195-143.017,0.616c0.129-8.228,0.095-16.525-0.102-24.768
			c-0.112-4.678-3.996-8.399-8.673-8.269c-4.678,0.112-8.381,3.995-8.269,8.673c0.261,10.958,0.227,22.013-0.102,32.858
			c-0.071,2.34,0.829,4.605,2.488,6.257c1.657,1.652,3.912,2.543,6.266,2.467c1.294-0.043,129.703-4.279,159.337-0.079
			c2.66,0.375,5.33-0.534,7.215-2.441c1.884-1.907,2.754-4.602,2.348-7.252c-1.194-7.767-0.668-21.023,4.253-24.808
			c3.827-2.948,11.711-0.193,16.068,1.707c2.753,1.202,5.934,0.856,8.364-0.906c0.042-0.031,4.404-3.044,10.225-3.92
			c7.616-1.146,14.099,1.905,19.818,9.325c13.985,18.14-5.722,41.699-6.552,42.674c-2.89,3.359-2.706,8.375,0.424,11.511
			c0.149,0.149,14.823,15.846,11.169,47.535c-4.144,35.93-9.92,68.262-9.977,68.585c-0.295,1.639-0.099,3.328,0.562,4.858
			l12.684,29.353l-9.625,58.12l-11.384,16.484h-2.495c2.377-4.01,4.709-8.881,6.653-14.713c2.608-7.823,9.071-52.545,10.341-61.432
			c0.512-3.584-1.313-7.1-4.538-8.746c-0.21-0.109-21.335-10.968-42.47-28.06c-18.706-15.127-41.323-38.363-42.85-63.166
			c-0.288-4.671-4.274-8.238-8.978-7.937c-4.671,0.287-8.224,4.307-7.936,8.978c0.592,9.622,3.468,18.883,7.868,27.653
			c-41.626,27.717-85.67,17.019-86.109,16.907c-2.343-0.607-4.831-0.183-6.841,1.164c-2.01,1.347-3.348,3.488-3.677,5.884
			l-14.052,102.063L204.01,495.05h-20.154c3.67-4.875,8.948-10.82,14.375-15.97c1.825-1.73,2.787-4.181,2.627-6.691l-2.431-38.001
			c-0.299-4.669-4.314-8.205-8.998-7.915c-4.669,0.299-8.214,4.327-7.915,8.998l2.182,34.102
			c-6.217,6.175-15.445,16.279-19.586,25.477h-15.426c5.291-8.137,12.039-16.614,15.146-20.282c1.552-1.833,2.255-4.24,1.931-6.619
			l-17.497-128.714c13.466,20.314,25.475,36.147,29.777,41.712l1.961,30.663c0.287,4.486,4.015,7.932,8.447,7.932
			c0.182,0,0.365-0.006,0.549-0.018c4.669-0.299,8.214-4.327,7.915-8.998l-2.129-33.269c-0.11-1.716-0.74-3.359-1.805-4.709
			c-0.333-0.423-33.646-42.795-56.652-85.929c-8.891-16.669-11.629-49.034-7.915-93.596c2.263-27.162,6.347-51.276,8.012-60.46
			c2.852-1.592,6.891-4.049,11.021-7.244c10.945-8.464,17.07-17.688,18.207-27.414c1.344-11.522-4.324-22.378-16.85-32.267
			c-0.708-0.559-1.501-1.002-2.349-1.311c-1.207-0.441-6.917-2.427-14.257-3.471c3.758-0.267,9.375-0.377,15.305,0.521
			c0.035,0.006,0.069,0.011,0.104,0.017c3.474,0.533,7.047,1.407,10.404,2.811c9.138,3.819,14.124,10.561,15.24,20.611
			c0.049,0.437,0.132,0.872,0.247,1.297c0.096,0.35,9.602,35.683,13.251,89.16c0.305,4.473,4.028,7.897,8.445,7.897
			c0.193,0,0.389-0.007,0.585-0.02c4.669-0.319,8.195-4.361,7.877-9.03c-3.544-51.967-12.264-86.612-13.64-91.836
			c-1.219-9.854-4.959-17.497-10.333-23.285c8.418-8.144,19.865-21.712,18.391-34.174c-0.569-4.808-3.183-11.45-12.409-15.781
			c-6.343-2.977-12.92-3.019-19.025-0.117c-0.975,0.463-1.935,1.003-2.88,1.617c-3.754-7.272-9.836-9.524-12.385-10.165
			c-10.083-2.534-21.806,3.509-26.135,13.469c-3.799,8.741-3.809,23.139-3.368,31.999c-10.384,3.883-16.505,12.862-19.334,20.011
			c-3.74,1.675-8.341,3.015-12.838,4.314c-11.311,3.266-23.007,6.644-25.839,17.262c-2.959,11.092-2.034,19.992,2.749,26.453
			c7.336,9.909,20.584,10.383,29.351,10.696c1.071,0.038,2.101,0.075,2.996,0.127l20.276,7.681
			c-1.935,10.968-5.555,33.452-7.696,59.064c-4.063,48.587-0.752,83.289,9.837,103.143c1.605,3.011,3.258,6.008,4.938,8.986
			l22.157,162.969c-5.355,6.589-17.455,22.178-21.893,33.737c-1,2.605-0.653,5.536,0.928,7.836c1.581,2.3,4.193,3.674,6.983,3.674
			h35.948h38.442c3.013,0,5.8-1.601,7.32-4.204l15.784-27.06c0.558-0.957,0.923-2.016,1.074-3.114l13.078-94.99
			c10.566,1.395,29.053,2.353,50.286-3.027c4.603,12.485,15.486,36.479,34.651,48.963l-5.253,52.535
			c-8.066,6.051-16.625,13.977-17.8,21.028c-0.41,2.457,0.282,4.97,1.892,6.87c1.61,1.9,3.975,2.996,6.466,2.996h36.022
			c3.659,0,6.905-2.349,8.049-5.825l30.979-94.153c7,4.575,12.993,8.077,17.035,10.335c-3.073,21.057-7.378,48.363-8.798,52.623
			c-5.089,15.267-13.247,21.406-13.509,21.602c-3.032,2.119-4.337,5.961-3.226,9.489c1.111,3.528,4.382,5.928,8.081,5.928h25.019
			c2.784,0,5.391-1.367,6.973-3.658l14.988-21.702c0.709-1.027,1.183-2.199,1.387-3.431l10.341-62.449
			C449.982,419.152,449.78,417.504,449.135,416.011z M165.395,34.089c0.145-0.224,0.28-0.454,0.403-0.693
			c2.518-4.258,5.309-7.635,8.121-8.968c1.089-0.516,2.393-0.856,4.544,0.154c1.751,0.822,2.687,1.639,2.782,2.429
			c0.447,3.762-5.79,13.297-15.763,22.283c-1.922-0.852-3.906-1.602-5.947-2.239C161.129,42.631,163.143,38.026,165.395,34.089z
			 M140.783,20.801c1.092-2.515,4.568-4.268,6.462-3.789c1.586,0.399,2.925,3.947,2.689,10.034c-1.192,2.182-2.342,4.532-3.447,7.06
			c-1.591,3.639-2.859,7.111-3.812,9.968c-1.311-0.079-2.623-0.12-3.937-0.138C138.402,35.351,138.797,25.368,140.783,20.801z
			 M103.805,108.621c-0.722-0.273-1.478-0.446-2.247-0.515c-1.541-0.138-3.218-0.198-4.991-0.261
			c-5.518-0.197-13.857-0.495-16.335-3.842c-1.498-2.023-1.514-6.212-0.047-11.805c1.536-1.883,9.456-4.17,14.218-5.546
			c6.297-1.819,12.789-3.711,18.44-6.805c0.389-0.169,0.764-0.368,1.122-0.593c6.975-3.797,19.88-0.974,25.44,0.781
			c6.826,5.666,9.993,11.074,9.417,16.088c-1.045,9.094-13.405,17.792-20.513,21.782L103.805,108.621z M346.265,495.051h-10.752
			c1.072-0.831,2.165-1.643,3.246-2.408c2.006-1.417,3.299-3.635,3.544-6.078l6.175-61.752c0.35-3.498-1.497-6.85-4.641-8.422
			c-16.779-8.39-26.948-30.512-31.267-42.026c7.718-3.074,15.609-7.071,23.466-12.265c11.343,15.704,26.752,29.291,40.878,39.803
			L346.265,495.051z"/>
	</g>
</g>
<g>
	<g>
		<path d="M122.665,82.204c-5.397,0-9.789,4.384-9.789,9.772c0,5.389,4.391,9.772,9.789,9.772c5.397,0.001,9.789-4.382,9.789-9.772
			C132.453,86.587,128.062,82.204,122.665,82.204z"/>
	</g>
</g>
<g>
</g>
<g>
</g>
<g>
</g>
<g>
</g>
<g>
</g>
<g>
</g>
<g>
</g>
<g>
</g>
<g>
</g>
<g>
</g>
<g>
</g>
<g>
</g>
<g>
</g>
<g>
</g>
<g>
</g>
</svg>
